<?xml version="1.0" encoding="UTF-8" standalone="no"?>
<!-- Created with Inkscape (http://www.inkscape.org/) -->

<svg
   width="200.30273"
   height="200.0547"
   viewBox="0 0 52.996739 52.931166"
   version="1.1"
   id="svg5"
   xmlns="http://www.w3.org/2000/svg"
   xmlns:svg="http://www.w3.org/2000/svg">
  <defs
     id="defs2" />
  <g
     id="layer1"
     style="display:inline"
     transform="translate(-46.261308,-52.834499)">
    <path
       id="rect7964-2"
       style="display:inline;fill:#e4ffe3;fill-opacity:1;stroke:none;stroke-width:0.696194;stroke-dasharray:none;stroke-opacity:1"
       d="m 72.759949,79.553282 -19.788973,6.928259 c 0,0 -0.314262,3.616705 -3.187402,1.711524 0,0 1.000801,3.468446 3.95428,2.517159 -2.977053,3.77246 1.825729,7.374743 1.825729,7.374743 0,0 2.63203,-4.595503 6.946346,0.386023 1.451267,1.67571 2.870922,2.9341 4.188891,3.8685 a 3.0427082,3.0427082 0 0 0 -0.02635,0.38344 3.0427082,3.0427082 0 0 0 3.042708,3.04271 3.0427082,3.0427082 0 0 0 2.306836,-1.06196 c 0.272553,0.0383 0.520884,0.0568 0.73949,0.0568 0.216929,0 0.463218,-0.0181 0.733289,-0.0558 a 3.0427082,3.0427082 0 0 0 2.305802,1.06092 3.0427082,3.0427082 0 0 0 3.042708,-3.04271 3.0427082,3.0427082 0 0 0 -0.02429,-0.37982 c 1.319406,-0.93477 2.740917,-2.19425 4.194059,-3.87212 4.314312,-4.981526 6.946346,-0.386023 6.946346,-0.386023 0,0 4.810229,-3.607816 1.818493,-7.383528 2.956299,0.955315 3.957898,-2.516126 3.957898,-2.516126 -2.842623,1.884945 -3.178996,-1.62361 -3.185852,-1.698604 l 0.0026,-0.0052 -0.0031,-0.001 c -2e-5,-2.21e-4 -0.001,-0.0067 -0.001,-0.0067 l -0.0047,0.0047 z" />
    <path
       id="path11210"
       style="display:inline;opacity:1;fill:#e4ffe3;fill-opacity:1;stroke-width:0.529167"
       d="m 95.478976,71.313992 c 0,0 -4.3e-5,2.110473 -4.196643,2.958475 h -5.066357 v 3.594613 l 3.064929,0.170532 c 0,0 2.250414,0.316605 4.817277,-1.249536 2.56686,-1.566144 1.380794,-5.474084 1.380794,-5.474084 z" />
    <path
       id="path11210-7"
       style="display:inline;fill:#e4ffe3;fill-opacity:1;stroke-width:0.529167"
       d="m 50.044023,71.313992 c 0,0 -1.186066,3.90794 1.380795,5.474084 2.566862,1.566141 4.817277,1.249536 4.817277,1.249536 l 1.295011,0.02584 -0.04393,-3.781164 -3.252515,-0.0098 c -4.196599,-0.848002 -4.196643,-2.958475 -4.196643,-2.958475 z" />
  </g>
  <g
     id="g302"
     style="display:inline;opacity:1"
     transform="translate(-46.261308,-52.834499)">
    <path
       id="path300"
       style="display:inline;fill:#67f562;fill-opacity:1;stroke:none;stroke-width:0.535321;stroke-dasharray:none;stroke-opacity:1"
       d="m 55.671586,52.834499 -0.0083,0.02532 c -5.735229,6.01518 -1.982186,18.203584 -1.551843,19.210713 0.457938,1.071727 0.136426,2.209685 0.136426,2.209685 l 0.228409,-5.17e-4 v 5.17e-4 h -0.228409 -0.01085 c -0.313155,3.77647 -7.975741,0.888318 -7.975741,0.888318 0,0 0.974151,9.755962 6.709668,11.313004 16.868966,4.135923 16.876489,12.669511 16.876489,12.669511 l 1.455208,0.264583 1.455209,0.264584 -0.0062,-0.264584 h 0.0155 l -0.0057,0.256832 1.412317,-0.256832 h 1.227832 v -0.223242 l 0.270268,-0.04909 c 0,0 0.008,-8.522992 16.846,-12.66176 h 0.03462 a 13.229167,13.229167 0 0 1 -0.0041,-0.0078 c 5.735518,-1.557052 6.709668,-11.313005 6.709668,-11.313005 0,0 -7.662586,2.888153 -7.975741,-0.888318 h -0.491959 v -0.001 l 0.491959,0.001 c 0,0 -0.321514,-1.137955 0.136426,-2.209684 0.430723,-1.008025 4.190252,-13.217162 -1.566829,-19.226733 l -5.17e-4,-0.0016 c -9.406778,1.051661 -10.47533,12.177552 -10.47533,12.177552 -6.614467,2.645783 -13.229166,0 -13.229166,0 0,0 -1.068552,-11.125891 -10.47533,-12.177552 z" />
  </g>
  <g
     id="layer13"
     transform="translate(-46.261308,-52.834499)"
     style="display:inline">
    <path
       style="fill:#040a04;fill-opacity:1;stroke:none;stroke-width:0.132292;stroke-dasharray:none;stroke-opacity:1"
       d="m 75.674094,86.340183 c 0,0 2.09809,-2.734985 5.28729,-2.618856 3.189201,0.116128 5.655406,2.267526 5.291101,2.623574 -0.364308,0.356047 -0.792081,0.108518 -0.792081,0.108518 0,0 -3.789214,-4.860914 -9.78631,-0.113236 z"
       id="path5673" />
    <path
       style="display:inline;fill:#040a04;fill-opacity:1;stroke:none;stroke-width:0.132292;stroke-dasharray:none;stroke-opacity:1"
       d="m 70.092717,86.340182 c 0,0 -2.09809,-2.734985 -5.28729,-2.618856 -3.189201,0.116128 -5.655406,2.267526 -5.291101,2.623574 0.364308,0.356047 0.792081,0.108518 0.792081,0.108518 0,0 3.789214,-4.860914 9.78631,-0.113236 z"
       id="path5673-6" />
  </g>
  <g
     id="g5762"
     transform="translate(-46.261308,-52.834499)"
     style="display:none">
    <path
       style="fill:#040a04;fill-opacity:1;stroke:none;stroke-width:0.132292;stroke-dasharray:none;stroke-opacity:1"
       d="m 75.672015,84.046215 c 0,0 2.097654,2.013497 5.460193,1.572117 3.362537,-0.441381 4.49761,-1.439828 4.49761,-1.439828 0,0 0.506735,-0.428771 0.658095,0 0.151363,0.42877 -6.891073,4.557747 -10.615898,-0.132289 z"
       id="path5776" />
    <path
       style="display:inline;fill:#040a04;fill-opacity:1;stroke:none;stroke-width:0.132292;stroke-dasharray:none;stroke-opacity:1"
       d="m 69.851181,84.046214 c 0,0 -2.097654,2.013498 -5.460193,1.572118 -3.362537,-0.441382 -4.49761,-1.439829 -4.49761,-1.439829 0,0 -0.506735,-0.42877 -0.658095,0 -0.151363,0.428771 6.891073,4.557748 10.615898,-0.132289 z"
       id="path5776-2" />
  </g>
  <g
     id="layer3"
     style="display:inline"
     transform="translate(0,-1.051615)">
    <path
       style="display:inline;opacity:1;fill:#e4ffe3;fill-opacity:1;stroke:none;stroke-width:0.132292;stroke-dasharray:none;stroke-opacity:1"
       d="m 29.793676,24.028532 c 0,0 4.017375,-3.562493 4.483862,-3.057271 0.466489,0.505221 0.190455,3.336644 -1.680216,4.363429 -1.87067,1.026786 -4.09154,0.113204 -2.803646,-1.306158 z"
       id="path5467" />
    <path
       style="display:inline;fill:#e4ffe3;fill-opacity:1;stroke:none;stroke-width:0.132292;stroke-dasharray:none;stroke-opacity:1"
       d="m 23.206904,24.028532 c 0,0 -4.017375,-3.562493 -4.483862,-3.057271 -0.466489,0.505221 -0.190455,3.336644 1.680216,4.363429 1.87067,1.026786 4.09154,0.113204 2.803646,-1.306158 z"
       id="path5467-0" />
  </g>
  <g
     id="layer2"
     style="display:none"
     transform="translate(0,-1.051615)">
    <rect
       style="display:inline;opacity:1;fill:none;stroke:#000000;stroke-width:0.264583;stroke-dasharray:none;stroke-opacity:1"
       id="rect855"
       width="39.577503"
       height="12.201322"
       x="6.6522241"
       y="25.905958"
       ry="0.41645527"
       rx="0.41645527" />
    <rect
       style="display:inline;opacity:1;fill:none;stroke:#000000;stroke-width:0.264583;stroke-dasharray:none;stroke-opacity:1"
       id="rect958"
       width="1.862414"
       height="12.333613"
       x="26.440977"
       y="25.905958"
       rx="0.41645527"
       ry="0.41645527" />
    <rect
       style="display:inline;opacity:1;fill:none;stroke:#000000;stroke-width:0.264583;stroke-dasharray:none;stroke-opacity:1"
       id="rect958-3"
       width="1.862414"
       height="12.333613"
       x="24.578566"
       y="25.905958"
       rx="0.41645527"
       ry="0.41645527" />
    <rect
       style="display:inline;opacity:1;fill:none;stroke:#000000;stroke-width:0.264583;stroke-dasharray:none;stroke-opacity:1"
       id="rect987"
       width="4.5661621"
       height="12.333613"
       x="6.6522241"
       y="25.905958"
       rx="0.41645527"
       ry="0.41645527" />
    <rect
       style="display:inline;opacity:1;fill:none;stroke:#000000;stroke-width:0.264583;stroke-dasharray:none;stroke-opacity:1"
       id="rect987-6"
       width="4.5661621"
       height="12.333613"
       x="41.663574"
       y="25.905958"
       rx="0.41645527"
       ry="0.41645527" />
    <rect
       style="display:inline;opacity:1;fill:none;stroke:#000000;stroke-width:0.264583;stroke-dasharray:none;stroke-opacity:1"
       id="rect1030"
       width="39.577511"
       height="6.1668053"
       x="6.6522241"
       y="25.905958"
       rx="0.41645527"
       ry="0.41645527" />
  </g>
  <g
     id="layer4"
     style="display:none"
     transform="translate(0,-1.051615)">
    <path
       style="display:inline;opacity:1;fill:#e4ffe3;fill-opacity:1;stroke:none;stroke-width:0.132292;stroke-dasharray:none;stroke-opacity:1"
       d="m 30.492519,25.051042 c 0,0 -1.200574,-2.061521 -1.072206,-3.394494 0.128365,-1.332974 1.29191,-0.443976 1.29191,-0.443976 0,0 4.225991,3.335692 3.410511,3.83847 -0.815483,0.502777 -2.890385,0.621185 -3.630215,0 -0.739831,-0.621185 0,0 0,0 z"
       id="path6785" />
    <path
       style="display:inline;fill:#e4ffe3;fill-opacity:1;stroke:none;stroke-width:0.132292;stroke-dasharray:none;stroke-opacity:1"
       d="m 22.508061,25.051042 c 0,0 1.200574,-2.061521 1.072206,-3.394494 -0.128365,-1.332974 -1.29191,-0.443976 -1.29191,-0.443976 0,0 -4.225991,3.335692 -3.410511,3.83847 0.815483,0.502777 2.890385,0.621185 3.630215,0 0.739831,-0.621185 0,0 0,0 z"
       id="path6785-6" />
  </g>
  <g
     id="layer8"
     style="display:none"
     transform="translate(-46.261308,-52.834499)">
    <path
       id="rect8120"
       style="display:inline;fill:#040a04;fill-opacity:1;stroke:none;stroke-width:0.498905;stroke-dasharray:none;stroke-opacity:1"
       d="m 72.779171,97.96766 c -1.071808,0.0036 -1.869654,0.117306 -1.869654,0.117306 a 1.0583334,1.0583334 0 0 0 -1.058333,1.058333 1.0583334,1.0583334 0 0 0 1.058333,1.058331 c 0,0 0.529167,0.26459 0.529167,1.85209 a 1.3229167,1.3229167 0 0 0 1.322917,1.32291 1.3229167,1.3229167 0 0 0 1.322917,-1.32291 c 0,-1.5875 0.529166,-1.85209 0.529166,-1.85209 a 1.0583334,1.0583334 0 0 0 1.058334,-1.058331 1.0583334,1.0583334 0 0 0 -1.058334,-1.058333 c -0.636652,-0.09095 -1.273091,-0.119171 -1.834513,-0.117306 z" />
  </g>
  <g
     id="g1618"
     style="display:inline"
     transform="translate(-46.261308,-52.834499)">
    <path
       id="path1854"
       style="display:inline;fill:#040a04;fill-opacity:1;stroke-width:0.132292"
       d="m 72.521721,97.704112 c -0.655052,-0.0024 -2.480291,0.06296 -3.318144,0.83044 -1.031205,0.944591 2.792494,3.132628 3.557922,3.132628 0.765428,0 4.589644,-2.188037 3.558439,-3.132628 -1.031204,-0.94459 -3.558439,-0.825789 -3.558439,-0.825789 0,0 -0.08861,-0.0041 -0.239778,-0.0047 z" />
  </g>
  <g
     id="layer12"
     style="display:inline"
     transform="translate(-46.261308,-52.834499)">
    <path
       id="path5290-2"
       style="display:inline;fill:#e4ffe3;fill-opacity:1;stroke-width:0.132292"
       d="m 88.620479,54.974937 c 0,0 -7.328285,3.345282 -6.577376,10.830864 0,0 4.686337,2.127849 6.716903,5.297351 0,0 1.958311,-3.085292 5.088061,-2.684591 0,0 -1.472255,-2.099776 -4.351155,-0.801501 0,0 1.622254,-5.164414 4.693253,-5.031218 0,0 -1.215142,-2.031491 -3.644222,-1.612305 0,0 0.785323,-3.204005 -1.584399,-4.752164 0,0 0.756004,-0.745173 1.494482,0.205672 0,0 -0.212769,-1.452108 -1.835547,-1.452108 z" />
    <path
       style="display:none;fill:#e4aae3;fill-opacity:0.629637;stroke-width:0.132292"
       d="m 82.043267,65.805799 6.716537,5.297163 5.088165,-2.684351 -4.350909,-0.801521 4.693105,-5.031119 -3.644368,-1.612266 -1.584319,-4.752139 1.49429,0.205608 -1.835277,-1.452004 z"
       id="path6582" />
    <path
       id="path5290-2-6"
       style="display:inline;fill:#e4ffe3;fill-opacity:1;stroke-width:0.132292"
       d="m 56.923808,54.974935 c 0,0 7.328285,3.345282 6.577376,10.830864 0,0 -4.686337,2.127849 -6.716903,5.297351 0,0 -1.958311,-3.085292 -5.088061,-2.684591 0,0 1.472255,-2.099776 4.351155,-0.801501 0,0 -1.622254,-5.164414 -4.693253,-5.031218 0,0 1.215142,-2.031491 3.644222,-1.612305 0,0 -0.785323,-3.204005 1.584399,-4.752164 0,0 -0.756004,-0.745173 -1.494482,0.205672 0,0 0.212769,-1.452108 1.835547,-1.452108 z" />
  </g>
  <g
     id="layer7"
     style="display:none"
     transform="translate(0,-1.051615)">
    <path
       id="path10918"
       style="fill:#2381e3;fill-opacity:0.98966;stroke:none;stroke-width:0.132292;stroke-dasharray:none;stroke-opacity:1"
       d="m 14.358813,33.376257 -2.878894,2.754871 c 3.137247,1.141143 5.461823,2.445654 7.183541,3.752742 l 2.579688,-5.841504 c -0.0012,3.56e-4 -0.0024,7.14e-4 -0.0036,10e-4 -2.43,0.976833 -5.241665,0.13739 -6.880717,-0.667143 z" />
    <path
       id="path10918-3"
       style="fill:#2381e3;fill-opacity:1;stroke:none;stroke-width:0.132292;stroke-dasharray:none;stroke-opacity:1"
       d="m 38.642086,33.376257 c -1.639051,0.804533 -4.450717,1.643976 -6.880717,0.667143 -0.0012,-3.2e-4 -0.0024,-6.78e-4 -0.0036,-10e-4 l 2.576587,5.833753 c 1.721206,-1.306586 4.044845,-2.610381 7.180441,-3.751192 z" />
  </g>
</svg>
