<?xml version="1.0" encoding="UTF-8" standalone="no"?>
<!-- Created with Inkscape (http://www.inkscape.org/) -->

<svg
   width="200.30273"
   height="224.99998"
   viewBox="0 0 52.996739 59.531275"
   version="1.1"
   id="svg5"
   xmlns="http://www.w3.org/2000/svg"
   xmlns:svg="http://www.w3.org/2000/svg">
  <defs
     id="defs2" />
  <g
     id="layer1"
     style="display:inline"
     transform="translate(-46.261308,-51.782884)">
    <path
       id="rect7964-2"
       style="display:inline;fill:#e4ffe3;fill-opacity:1;stroke:none;stroke-width:0.696194;stroke-dasharray:none;stroke-opacity:1"
       d="m 54.260404,88.030799 a 18.520834,18.520834 0 0 0 0.170016,1.94045 c -0.06454,0.05564 -0.127641,0.114205 -0.189653,0.176217 -3.968742,3.968742 1.322917,7.9375 1.322917,7.9375 5.291655,-6.61457 11.90625,7.937504 11.90625,7.937504 a 5.291667,5.291667 0 0 0 5.291667,5.29166 5.291667,5.291667 0 0 0 5.291667,-5.29166 c 0,0 6.614593,-14.552074 11.90625,-7.937504 0,0 5.291659,-3.968758 1.322917,-7.9375 -0.06148,-0.06148 -0.124134,-0.11945 -0.188103,-0.174667 a 18.520834,18.520834 0 0 0 0.168466,-1.942 z" />
    <path
       id="path11210"
       style="display:inline;opacity:1;fill:#e4ffe3;fill-opacity:1;stroke-width:0.529167"
       d="m 95.478976,71.313992 c 0,0 -4.3e-5,2.110473 -4.196643,2.958475 h -5.066357 v 3.594613 l 3.064929,0.170532 c 0,0 2.250414,0.316605 4.817277,-1.249536 2.56686,-1.566144 1.380794,-5.474084 1.380794,-5.474084 z" />
    <path
       id="path11210-7"
       style="display:inline;fill:#e4ffe3;fill-opacity:1;stroke-width:0.529167"
       d="m 50.044023,71.313992 c 0,0 -1.186066,3.90794 1.380795,5.474084 2.566862,1.566141 4.817277,1.249536 4.817277,1.249536 l 1.295011,0.02584 -0.04393,-3.781164 -3.252515,-0.0098 c -4.196599,-0.848002 -4.196643,-2.958475 -4.196643,-2.958475 z" />
  </g>
  <g
     id="g302"
     style="display:inline;opacity:1"
     transform="translate(-46.261308,-51.782884)">
    <path
       id="path300"
       style="display:inline;fill:#67f562;fill-opacity:1;stroke:none;stroke-width:0.535321;stroke-dasharray:none;stroke-opacity:1"
       d="m 56.8865,51.782884 c -3.968722,6.614534 -2.645834,22.489583 -2.645834,22.489583 0,0 0.0067,0.0073 0.0072,0.0078 h -0.01085 c -0.313155,3.776506 -7.975741,0.888318 -7.975741,0.888318 0,0 0.974097,9.755944 6.709668,11.313004 a 13.229167,13.229167 0 0 1 -1.073836,1.898076 21.166668,21.166668 0 0 0 0.0016,0.0093 13.229167,13.229167 0 0 1 -1.862418,2.158525 10.583334,10.583334 0 0 1 2.249475,-0.381372 21.166668,21.166668 0 0 1 -0.103353,-0.413412 21.166668,21.166668 0 0 0 0.107487,0.427881 10.583334,10.583334 0 0 1 0.627869,-0.03307 10.583334,10.583334 0 0 1 10.297045,8.250143 5.291667,5.291667 0 0 1 0.0217,0.481107 5.291667,5.291667 0 0 1 -0.312643,1.790073 5.291667,5.291667 0 0 1 0.077,-0.11731 5.291667,5.291667 0 0 0 -0.822689,2.82515 5.291667,5.291667 0 0 0 5.291667,5.29167 5.291667,5.291667 0 0 0 5.291667,-5.29167 5.291667,5.291667 0 0 0 5.291666,5.29167 5.291667,5.291667 0 0 0 5.291667,-5.29167 5.291667,5.291667 0 0 0 -0.744141,-2.70577 5.291667,5.291667 0 0 1 -0.314192,-1.792143 5.291667,5.291667 0 0 1 0.03152,-0.521415 10.583334,10.583334 0 0 1 10.287227,-8.209835 10.583334,10.583334 0 0 1 0.63097,0.02015 21.166668,21.166668 0 0 0 0.387573,-1.775602 21.166668,21.166668 0 0 0 0.0021,-0.0124 13.229167,13.229167 0 0 1 -1.077454,-1.905827 c 5.735572,-1.557061 6.709668,-11.313005 6.709668,-11.313005 0,0 -7.662585,2.888189 -7.97574,-0.888318 0,0 1.322889,-15.875049 -2.645833,-22.489583 0,0 -9.086157,3.895645 -9.256283,12.971301 a 21.166668,21.166668 0 0 0 -0.0041,-0.0016 v 0.259416 c -6.61453,2.64581 -13.229167,0 -13.229167,0 v -0.258383 a 21.166668,21.166668 0 0 0 -0.0041,0.0016 C 65.972919,55.679122 56.8865,51.782884 56.8865,51.782884 Z m 36.737292,36.609135 a 21.166668,21.166668 0 0 1 -0.382922,1.783354 10.583334,10.583334 0 0 1 2.238106,0.370003 13.229167,13.229167 0 0 1 -1.855184,-2.153357 z m -30.165084,11.53418 a 10.583334,10.583334 0 0 1 5.17e-4,0.0041 5.291667,5.291667 0 0 0 -0.429948,0.577751 5.291667,5.291667 0 0 1 0.429431,-0.581885 z" />
  </g>
  <g
     id="layer13"
     transform="translate(-46.261308,-51.782884)">
    <path
       style="fill:#040a04;fill-opacity:1;stroke:none;stroke-width:0.529167;stroke-dasharray:none;stroke-opacity:1"
       d="m 76.730351,82.209966 c 0,0 5.291667,-3.704167 7.9375,-2.645834 2.645833,1.058334 0,0 0,0 0,0 1.5875,1.058334 -0.264583,1.322917 -1.852084,0.264583 -7.672917,1.322917 -7.672917,1.322917 l 1.322917,0.79375"
       id="path12083" />
    <path
       style="fill:#040a04;fill-opacity:1;stroke:none;stroke-width:0.529167;stroke-dasharray:none;stroke-opacity:1"
       d="m 68.792851,82.2099 c 0,0 -5.291667,-3.704167 -7.9375,-2.645834 -2.645833,1.058334 0,0 0,0 0,0 -1.5875,1.058334 0.264583,1.322917 1.852084,0.264583 7.672917,1.322917 7.672917,1.322917 l -1.322917,0.79375"
       id="path12083-3" />
  </g>
  <g
     id="layer8"
     style="display:inline"
     transform="translate(-46.261308,-51.782884)">
    <path
       id="rect8120"
       style="display:inline;fill:#040a04;fill-opacity:1;stroke:none;stroke-width:0.498905;stroke-dasharray:none;stroke-opacity:1"
       d="m 72.779171,97.96766 c -1.071808,0.0036 -1.869654,0.117306 -1.869654,0.117306 a 1.0583334,1.0583334 0 0 0 -1.058333,1.058333 1.0583334,1.0583334 0 0 0 1.058333,1.058331 c 0,0 0.529167,0.26459 0.529167,1.85209 a 1.3229167,1.3229167 0 0 0 1.322917,1.32291 1.3229167,1.3229167 0 0 0 1.322917,-1.32291 c 0,-1.5875 0.529166,-1.85209 0.529166,-1.85209 a 1.0583334,1.0583334 0 0 0 1.058334,-1.058331 1.0583334,1.0583334 0 0 0 -1.058334,-1.058333 c -0.636652,-0.09095 -1.273091,-0.119171 -1.834513,-0.117306 z" />
  </g>
  <g
     id="layer12"
     style="display:inline"
     transform="translate(-46.261308,-51.782884)">
    <path
       style="fill:#e4ffe3;fill-opacity:1;stroke:none;stroke-width:0.529167;stroke-dasharray:none;stroke-opacity:1"
       d="m 63.501184,65.805799 c 0,0 1.135073,-6.172492 -5.291667,-10.054167 -6.42674,-3.881676 0,0 0,0 0,0 -3.175,6.085416 -1.322917,15.08125 1.852084,8.995834 0,0 0,0 0,0 2.910417,-3.175 6.614584,-5.027083 z"
       id="path8743" />
    <path
       style="display:inline;fill:#e4ffe3;fill-opacity:1;stroke:none;stroke-width:0.529167;stroke-dasharray:none;stroke-opacity:1"
       d="m 82.043266,65.805799 c 0,0 -1.135073,-6.172492 5.291667,-10.054167 6.42674,-3.881676 0,0 0,0 0,0 3.175,6.085416 1.322917,15.08125 -1.852084,8.995834 0,0 0,0 0,0 -2.910417,-3.175 -6.614584,-5.027083 z"
       id="path8743-0" />
  </g>
</svg>
