<?xml version="1.0" encoding="UTF-8" standalone="no"?>
<!-- Created with Inkscape (http://www.inkscape.org/) -->

<svg
   width="171.75177"
   height="225.00002"
   viewBox="0 0 45.442657 59.531256"
   version="1.1"
   id="svg5"
   xmlns="http://www.w3.org/2000/svg"
   xmlns:svg="http://www.w3.org/2000/svg">
  <defs
     id="defs2" />
  <g
     id="layer1"
     style="display:inline"
     transform="translate(-35.483155,-33.072915)">
    <path
       id="rect7964-2"
       style="display:inline;fill:#e4ffe3;fill-opacity:1;stroke:none;stroke-width:0.696194;stroke-dasharray:none;stroke-opacity:1"
       d="m 39.707138,69.320835 a 18.520834,18.520834 0 0 0 0.170016,1.94045 c -0.06454,0.05564 -0.127641,0.114205 -0.189653,0.176217 -3.968742,3.968742 1.322917,7.9375 1.322917,7.9375 5.291655,-6.61457 11.90625,7.9375 11.90625,7.9375 a 5.291667,5.291667 0 0 0 5.291667,5.291667 5.291667,5.291667 0 0 0 5.291667,-5.291667 c 0,0 6.614593,-14.55207 11.90625,-7.9375 0,0 5.291659,-3.968758 1.322917,-7.9375 -0.06148,-0.06148 -0.124134,-0.11945 -0.188103,-0.174667 a 18.520834,18.520834 0 0 0 0.168466,-1.942 z" />
  </g>
  <g
     id="g2796"
     style="display:inline;opacity:1"
     transform="translate(-35.483155,-33.072915)">
    <path
       id="circle2786"
       style="display:inline;fill:#67f562;fill-opacity:1;stroke:none;stroke-width:0.535321;stroke-dasharray:none;stroke-opacity:1"
       d="m 42.333334,33.072918 c -3.968746,6.614576 -2.645833,22.489583 -2.645833,22.489583 0.02361,0.09444 0.04161,0.180342 0.05736,0.262517 a 21.166668,21.166668 0 0 0 -0.885217,1.74718 13.229167,13.229167 0 0 1 0.827856,4.604887 13.229167,13.229167 0 0 1 -2.343526,7.492566 21.166668,21.166668 0 0 0 0.0016,0.0093 13.229167,13.229167 0 0 1 -1.862419,2.158524 10.583334,10.583334 0 0 1 2.249476,-0.381372 21.166668,21.166668 0 0 1 -0.202572,-0.843876 21.166668,21.166668 0 0 0 0.206706,0.858346 10.583334,10.583334 0 0 1 0.627868,-0.03307 10.583334,10.583334 0 0 1 10.297046,8.250142 5.291667,5.291667 0 0 1 0.0217,0.481108 5.291667,5.291667 0 0 1 -0.312643,1.790072 5.291667,5.291667 0 0 1 0.077,-0.117306 5.291667,5.291667 0 0 0 -0.822689,2.825151 5.291667,5.291667 0 0 0 5.291667,5.291667 5.291667,5.291667 0 0 0 5.291667,-5.291667 5.291667,5.291667 0 0 0 5.291667,5.291667 5.291667,5.291667 0 0 0 5.291666,-5.291667 5.291667,5.291667 0 0 0 -0.74414,-2.705778 5.291667,5.291667 0 0 1 -0.314193,-1.792139 5.291667,5.291667 0 0 1 0.03152,-0.521415 10.583334,10.583334 0 0 1 10.287227,-8.209835 10.583334,10.583334 0 0 1 0.63097,0.02015 21.166668,21.166668 0 0 0 0.38964,-1.788005 13.229167,13.229167 0 0 1 -2.343526,-7.492566 13.229167,13.229167 0 0 1 0.833024,-4.599203 21.166668,21.166668 0 0 0 -0.889868,-1.755965 c 0.01564,-0.08129 0.03353,-0.166167 0.05684,-0.259416 0,0 1.322912,-15.875007 -2.645834,-22.489583 0,0 -9.086157,3.895591 -9.256283,12.971301 a 21.166668,21.166668 0 0 0 -0.0041,-0.0016 v 0.259416 c -6.614569,2.645828 -13.229167,0 -13.229167,0 v -0.258383 a 21.166668,21.166668 0 0 0 -0.0041,0.0016 C 51.42016,36.968806 42.333334,33.072918 42.333334,33.072918 Z m 36.737294,36.609135 a 21.166668,21.166668 0 0 1 -0.382923,1.783354 10.583334,10.583334 0 0 1 2.238107,0.370003 13.229167,13.229167 0 0 1 -1.855184,-2.153357 z m -30.165085,11.53418 a 10.583334,10.583334 0 0 1 5.17e-4,0.0041 5.291667,5.291667 0 0 0 -0.429948,0.577743 5.291667,5.291667 0 0 1 0.429431,-0.581877 z" />
  </g>
  <g
     id="layer13"
     transform="translate(-35.483155,-33.072915)">
    <path
       style="fill:#040a04;fill-opacity:1;stroke:none;stroke-width:0.529167;stroke-dasharray:none;stroke-opacity:1"
       d="m 62.177085,63.500002 c 0,0 5.291667,-3.704167 7.9375,-2.645834 2.645833,1.058334 0,0 0,0 0,0 1.5875,1.058334 -0.264583,1.322917 -1.852084,0.264583 -7.672917,1.322917 -7.672917,1.322917 l 1.322917,0.79375"
       id="path12083" />
    <path
       style="fill:#040a04;fill-opacity:1;stroke:none;stroke-width:0.529167;stroke-dasharray:none;stroke-opacity:1"
       d="m 54.239585,63.499936 c 0,0 -5.291667,-3.704167 -7.9375,-2.645834 -2.645833,1.058334 0,0 0,0 0,0 -1.5875,1.058334 0.264583,1.322917 1.852084,0.264583 7.672917,1.322917 7.672917,1.322917 l -1.322917,0.79375"
       id="path12083-3" />
  </g>
  <g
     id="layer8"
     style="display:inline"
     transform="translate(-35.483155,-33.072915)">
    <path
       id="rect8120"
       style="display:inline;fill:#040a04;fill-opacity:1;stroke:none;stroke-width:0.498905;stroke-dasharray:none;stroke-opacity:1"
       d="m 58.225905,79.257696 c -1.071808,0.0036 -1.869654,0.117306 -1.869654,0.117306 a 1.0583334,1.0583334 0 0 0 -1.058333,1.058333 1.0583334,1.0583334 0 0 0 1.058333,1.058334 c 0,0 0.529167,0.264589 0.529167,1.852083 a 1.3229167,1.3229167 0 0 0 1.322917,1.322917 1.3229167,1.3229167 0 0 0 1.322917,-1.322917 c 0,-1.587494 0.529166,-1.852083 0.529166,-1.852083 a 1.0583334,1.0583334 0 0 0 1.058334,-1.058334 1.0583334,1.0583334 0 0 0 -1.058334,-1.058333 c -0.636652,-0.09095 -1.273091,-0.119171 -1.834513,-0.117306 z" />
  </g>
  <g
     id="layer12"
     style="display:inline"
     transform="translate(-35.483155,-33.072915)">
    <path
       style="fill:#e4ffe3;fill-opacity:1;stroke:none;stroke-width:0.529167;stroke-dasharray:none;stroke-opacity:1"
       d="m 48.947918,47.095835 c 0,0 1.135073,-6.172492 -5.291667,-10.054167 -6.42674,-3.881676 0,0 0,0 0,0 -3.175,6.085416 -1.322917,15.08125 1.852084,8.995834 0,0 0,0 0,0 2.910417,-3.175 6.614584,-5.027083 z"
       id="path8743" />
    <path
       style="display:inline;fill:#e4ffe3;fill-opacity:1;stroke:none;stroke-width:0.529167;stroke-dasharray:none;stroke-opacity:1"
       d="m 67.49,47.095835 c 0,0 -1.135073,-6.172492 5.291667,-10.054167 6.42674,-3.881676 0,0 0,0 0,0 3.175,6.085416 1.322917,15.08125 -1.852084,8.995834 0,0 0,0 0,0 -2.910417,-3.175 -6.614584,-5.027083 z"
       id="path8743-0" />
  </g>
</svg>
