<?xml version="1.0" encoding="UTF-8" standalone="no"?>
<svg
   viewBox="-40 -40 76 76"
   version="1.1"
   id="svg10"
   sodipodi:docname="Yin_yang4.svg"
   inkscape:version="1.1.2 (08b2f3d93c, 2022-04-05)"
   width="76"
   height="76"
   xmlns:inkscape="http://www.inkscape.org/namespaces/inkscape"
   xmlns:sodipodi="http://sodipodi.sourceforge.net/DTD/sodipodi-0.dtd"
   xmlns="http://www.w3.org/2000/svg"
   xmlns:svg="http://www.w3.org/2000/svg">
  <defs
     id="defs14" />
  <sodipodi:namedview
     id="namedview12"
     pagecolor="#ffffff"
     bordercolor="#666666"
     borderopacity="1.0"
     inkscape:pageshadow="2"
     inkscape:pageopacity="0.0"
     inkscape:pagecheckerboard="0"
     showgrid="false"
     inkscape:zoom="8.525"
     inkscape:cx="19.354839"
     inkscape:cy="36.656891"
     inkscape:window-width="1920"
     inkscape:window-height="1024"
     inkscape:window-x="0"
     inkscape:window-y="0"
     inkscape:window-maximized="1"
     inkscape:current-layer="svg10" />
  <path
     id="path4"
     style="fill:#67f562;fill-opacity:1;stroke-width:1"
     d="m -2,-40 a 38,38 0 0 0 0,76 19,19 0 0 1 0,-38 19,19 0 0 0 0,-38 z m 0,14 A 5,5 0 0 1 2.9999997,-21 5,5 0 0 1 -2,-16 a 5,5 0 0 1 -5,-5 5,5 0 0 1 5,-5 z m 0,38 a 5,5 0 0 0 -5,5 5,5 0 0 0 5,5 A 5,5 0 0 0 2.9999997,17 5,5 0 0 0 -2,12 Z" />
</svg>
